HIERARCHY
ROOT Hips
{
	OFFSET 0.000000 0.000000 0.000000
	CHANNELS 6 Xposition Yposition Zposition Zrotation Yrotation Xrotation 
	JOINT LeftUpLeg_virtual
	{
		OFFSET 0.000000 0.000000 0.000000
		CHANNELS 3 Zrotation Yrotation Xrotation
		JOINT LeftUpLeg
		{
			OFFSET 8.479694 -4.795517 -0.379053
			CHANNELS 3 Zrotation Yrotation Xrotation
			JOINT LeftLeg
			{
				OFFSET 0.485052 -32.551468 0.112863
				CHANNELS 3 Zrotation Yrotation Xrotation
				JOINT LeftFoot
				{
					OFFSET 0.438033 -32.635670 -3.012641
					CHANNELS 3 Zrotation Yrotation Xrotation
					JOINT LeftToeBase
					{
						OFFSET 0.970169 -13.225353 11.864223
						CHANNELS 3 Zrotation Yrotation Xrotation
						End Site
						{
							OFFSET 0.000000 0.000000 0.000000
						}
					}
				}
			}
		}
	}
	JOINT RightUpLeg_virtual
	{
		OFFSET 0.000000 0.000000 0.000000
		CHANNELS 3 Zrotation Yrotation Xrotation
		JOINT RightUpLeg
		{
			OFFSET -8.479694 -4.795517 -0.379053
			CHANNELS 3 Zrotation Yrotation Xrotation
			JOINT RightLeg
			{
				OFFSET -0.484100 -32.551483 0.112903
				CHANNELS 3 Zrotation Yrotation Xrotation
				JOINT RightFoot
				{
					OFFSET -0.438985 -32.635651 -3.012681
					CHANNELS 3 Zrotation Yrotation Xrotation
					JOINT RightToeBase
					{
						OFFSET -0.970169 -13.225354 11.864223
						CHANNELS 3 Zrotation Yrotation Xrotation
						End Site
						{
							OFFSET 0.000000 0.000000 0.000000
						}
					}
				}
			}
		}
	}
	JOINT Spine_virtual
	{
		OFFSET 0.000000 0.000000 0.000000
		CHANNELS 3 Zrotation Yrotation Xrotation
		JOINT Spine
		{
			OFFSET 0.000000 7.722015 1.166203
			CHANNELS 3 Zrotation Yrotation Xrotation
			JOINT Spine1
			{
				OFFSET 0.000000 12.024086 0.248766
				CHANNELS 3 Zrotation Yrotation Xrotation
				JOINT Spine2
				{
					OFFSET -0.000000 11.503036 -0.491240
					CHANNELS 3 Zrotation Yrotation Xrotation
					JOINT Neck_virtual
					{
						OFFSET 0.000000 0.000000 0.000000
						CHANNELS 3 Zrotation Yrotation Xrotation
						JOINT Neck
						{
							OFFSET 0.000000 18.430687 -3.123054
							CHANNELS 3 Zrotation Yrotation Xrotation
							JOINT Head
							{
								OFFSET -0.000000 9.051071 1.034021
								CHANNELS 3 Zrotation Yrotation Xrotation
								End Site
								{
									OFFSET 0.000000 0.000000 0.000000
								}
							}
						}
					}
					JOINT LeftShoulder_virtual
					{
						OFFSET 0.000000 0.000000 0.000000
						CHANNELS 3 Zrotation Yrotation Xrotation
						JOINT LeftShoulder
						{
							OFFSET 6.197824 13.665230 -4.064723
							CHANNELS 3 Zrotation Yrotation Xrotation
							JOINT LeftArm
							{
								OFFSET 7.778132 -0.187073 -1.709282
								CHANNELS 3 Zrotation Yrotation Xrotation
								JOINT LeftForeArm
								{
									OFFSET 21.954697 0.000000 -2.041093
									CHANNELS 3 Zrotation Yrotation Xrotation
									JOINT LeftHand
									{
										OFFSET 22.992908 0.000000 -0.870901
										CHANNELS 3 Zrotation Yrotation Xrotation
										End Site
										{
											OFFSET 0.000000 0.000000 0.000000
										}
									}
								}
							}
						}
					}
					JOINT RightShoulder_virtual
					{
						OFFSET 0.000000 0.000000 0.000000
						CHANNELS 3 Zrotation Yrotation Xrotation
						JOINT RightShoulder
						{
							OFFSET -6.197824 13.665230 -4.064723
							CHANNELS 3 Zrotation Yrotation Xrotation
							JOINT RightArm
							{
								OFFSET -7.778132 -0.187073 -1.709282
								CHANNELS 3 Zrotation Yrotation Xrotation
								JOINT RightForeArm
								{
									OFFSET -21.954697 0.000000 -2.041093
									CHANNELS 3 Zrotation Yrotation Xrotation
									JOINT RightHand
									{
										OFFSET -22.992908 0.000000 -0.870901
										CHANNELS 3 Zrotation Yrotation Xrotation
										End Site
										{
											OFFSET 0.000000 0.000000 0.000000
										}
									}
								}
							}
						}
					}
				}
			}
		}
	}
}
MOTION
Frames: 4
Frame Time: 0.033333
3.309437 79.699287 -8.004762 -179.911062 -0.514051 179.748258 -1.686851 -1.462541 7.666222 -3.272569 -0.092875 -22.377769 9.909158 3.637642 32.695774 0.083570 -8.469728 -14.787981 0.000000 0.000000 0.000000 1.957303 -2.156738 8.421235 4.298598 -5.076691 -37.585588 -0.895883 3.251488 34.950816 6.931625 6.031874 -3.804552 0.000000 0.000000 0.000000 2.982030 0.496165 -2.453030 -0.125681 1.570655 -3.578578 -2.918774 -1.601006 14.327944 0.027889 -0.005341 -0.058880 -3.179757 -0.551092 14.688016 -12.451789 3.363557 4.624403 0.000000 0.000000 0.000000 -1.495265 -0.194481 11.369918 8.896887 -0.459204 3.274344 -53.450752 13.651192 15.106466 -120.073605 -88.773949 135.832819 0.000000 0.000000 0.000000 -5.639534 1.551316 11.218093 26.919618 4.210907 4.874232 42.792450 -10.291663 25.332326 -10.721978 68.479613 -9.279548 0.000000 0.000000 0.000000 
3.545154 79.980675 -7.809679 -179.798009 -1.416365 179.711238 -2.038140 -1.810209 7.892716 -2.458454 0.270709 -22.805016 9.462523 3.374118 32.752236 -0.146638 -8.615907 -14.259075 0.000000 0.000000 0.000000 1.864537 -2.647015 8.482301 2.937086 -4.515596 -37.629865 -0.927864 3.432362 32.693018 7.397659 6.129642 -3.577759 0.000000 0.000000 0.000000 2.672363 0.010977 -1.997637 -0.169622 1.641078 -3.115795 -2.900155 -1.447794 14.408083 0.030361 -0.066327 -0.063560 -3.160958 -0.396210 14.635600 -12.667063 3.347005 4.503880 0.000000 0.000000 0.000000 -1.500778 0.019185 11.420645 8.680843 -0.921568 3.267924 -54.497403 13.781655 15.742486 -14.593502 -86.597400 29.479926 0.000000 0.000000 0.000000 -5.634491 1.781336 11.271737 26.641624 4.488337 4.880912 42.723246 -9.843249 26.042439 -10.856263 68.146457 -9.100816 0.000000 0.000000 0.000000 
3.803916 80.272919 -7.655362 -179.707728 -2.295282 179.695037 -2.463014 -2.061978 8.122883 -1.545188 0.544732 -23.185728 8.941255 3.045449 32.651053 -0.306435 -8.741543 -13.711215 0.000000 0.000000 0.000000 1.659531 -2.945498 8.565543 1.614492 -4.083823 -37.496653 -0.929982 3.621546 31.435959 7.775834 6.272449 -3.559688 0.000000 0.000000 0.000000 2.315869 -0.350450 -1.392806 -0.316215 1.688183 -2.832836 -2.859054 -1.299545 14.426970 0.001215 -0.035189 -0.086024 -3.116778 -0.139395 14.624552 -12.824014 3.429714 4.491929 0.000000 0.000000 0.000000 -1.448103 0.261394 11.332168 8.200545 -1.347903 3.251245 -55.580535 13.425947 16.247316 -4.154853 -82.853835 18.111083 0.000000 0.000000 0.000000 -5.611186 1.986438 11.136411 26.387070 4.731365 4.877246 42.527148 -9.782279 26.869539 -11.356368 68.265159 -9.255377 0.000000 0.000000 0.000000 
4.082240 80.573395 -7.504308 -179.676992 -3.292314 179.671459 -2.916235 -2.290042 8.295319 -0.602499 0.734472 -23.412770 8.373740 2.755880 32.309943 -0.475379 -8.894128 -13.081540 0.000000 0.000000 0.000000 1.288387 -3.190833 8.671514 0.414733 -3.828126 -37.091776 -0.870003 3.761988 31.021473 7.980101 6.278234 -3.625911 0.000000 0.000000 0.000000 1.917674 -0.625838 -0.740645 -0.616677 1.689858 -2.643582 -2.789906 -1.152776 14.404097 -0.015269 -0.036170 -0.076684 -3.091471 -0.003639 14.637756 -13.038953 3.247152 4.553755 0.000000 0.000000 0.000000 -1.405692 0.459545 11.340379 7.540306 -1.766187 3.229784 -56.568327 12.391920 16.460464 -2.619603 -79.605623 15.633632 0.000000 0.000000 0.000000 -5.521632 2.132737 11.205567 26.256087 4.928152 4.908644 42.254330 -9.874076 27.561642 -11.847471 68.722925 -9.416791 0.000000 0.000000 0.000000 
